PathFileType	4	(X/Y/Z)	s11c0203.trc
DataRate	CameraRate	NumFrames	NumMarkers	Units	OrigDataRate	OrigDataStartFrame	OrigNumFrames
200	200	4	48	mm	200	0	2000
Frame#	Time	racr			lacr			c7			jug			rlel			rdr			llel			ldr			s2			lic			ric			lasi			rasi			rpsi			lpsi			rgt			lgt			rth1			rth2			rth3			rth4			rlfc			rmfc			rsh1			rsh2			rsh3			rsh4			rlmal			rcal			rtoe			rmt5			lth1			lth2			lth4			lth3			llfc			lmfc			llmal			lcal			lmt5			lsh1			lsh2			lsh3			lsh4			ltoe			SBIKE			LBIKE			RBIKE			
		X1	Y1	Z1	X2	Y2	Z2	X3	Y3	Z3	X4	Y4	Z4	X5	Y5	Z5	X6	Y6	Z6	X7	Y7	Z7	X8	Y8	Z8	X9	Y9	Z9	X10	Y10	Z10	X11	Y11	Z11	X12	Y12	Z12	X13	Y13	Z13	X14	Y14	Z14	X15	Y15	Z15	X16	Y16	Z16	X17	Y17	Z17	X18	Y18	Z18	X19	Y19	Z19	X20	Y20	Z20	X21	Y21	Z21	X22	Y22	Z22	X23	Y23	Z23	X24	Y24	Z24	X25	Y25	Z25	X26	Y26	Z26	X27	Y27	Z27	X28	Y28	Z28	X29	Y29	Z29	X30	Y30	Z30	X31	Y31	Z31	X32	Y32	Z32	X33	Y33	Z33	X34	Y34	Z34	X35	Y35	Z35	X36	Y36	Z36	X37	Y37	Z37	X38	Y38	Z38	X39	Y39	Z39	X40	Y40	Z40	X41	Y41	Z41	X42	Y42	Z42	X43	Y43	Z43	X44	Y44	Z44	X45	Y45	Z45	X46	Y46	Z46	X47	Y47	Z47	X48	Y48	Z48	
0	0.0000	423.049627	1414.483432	-118.999687	409.292951	1414.385575	-427.980072	329.214053	1526.314838	-275.444622	373.272821	1353.868249	-276.414936	563.090432	1181.111742	-60.215521	776.920814	963.928142	-88.688461	533.684650	1151.275488	-497.817515	776.091245	943.807495	-453.115679	-173.429617	1190.188747	-276.431920	50.124949	1212.227036	-468.477758	41.600192	1224.757041	-73.636522	92.213215	1138.545395	-433.131918	81.969391	1160.579721	-102.606278	-144.462939	1273.816350	-222.694822	-135.616256	1262.979209	-315.613961	-7.713713	1074.007248	-44.345660	-31.315467	1080.045353	-479.729860	98.604282	971.420179	-40.873775	176.060438	928.114298	-54.014358	219.632981	854.029466	-72.056389	199.789712	954.975828	-65.142909	296.196885	779.256462	-93.774627	298.046921	759.703339	-218.057144	280.982484	620.013028	-76.586291	299.008749	534.886701	-92.894044	274.080668	451.304814	-93.108472	323.885837	536.972864	-124.127269	260.445278	315.073631	-105.757089	203.319042	280.728205	-152.730729	488.593581	310.988829	-150.361568	425.696648	269.289305	-79.599360	88.774735	995.956046	-498.431572	169.401294	967.441940	-499.264209	191.579370	996.179520	-490.648501	226.986681	898.178360	-499.502712	327.191499	805.163214	-479.853123	347.330730	801.269107	-351.796103	7.603973	526.444075	-418.163559	-61.240093	507.949152	-375.188610	103.154636	387.007916	-452.511237	232.852896	724.247381	-486.356775	191.440145	652.845404	-466.191884	115.723738	608.152868	-451.532340	217.041440	634.891515	-443.632859	203.566674	372.371638	-389.715594	-216.876202	948.802595	-256.739394	-18.222883	81.008043	-460.478268	-18.037277	80.850988	-61.937493	
1	0.0050	422.972977	1414.484411	-118.928186	409.221892	1414.293659	-427.944144	329.167081	1526.330615	-275.400569	373.194189	1353.875404	-276.393238	563.064913	1181.125898	-60.181440	776.908416	963.928823	-88.667857	533.662132	1151.234327	-497.788945	776.098374	943.819929	-453.120570	-173.492810	1190.181757	-276.405807	50.113264	1212.211113	-468.457943	41.528862	1224.773015	-73.606193	92.214161	1138.535190	-433.082410	81.902406	1160.579580	-102.576456	-144.511131	1273.780957	-222.692739	-135.632377	1262.959088	-315.572658	-7.673042	1074.058550	-44.336428	-31.338904	1079.986129	-479.700243	98.766315	971.641813	-40.833884	176.312463	928.422876	-53.983703	220.023042	854.448460	-72.024804	199.986045	955.419704	-65.117007	296.682204	779.713745	-93.737130	298.581800	760.102691	-218.021969	281.449866	620.418772	-76.556159	299.437336	535.256004	-92.882226	274.396844	451.824333	-93.103259	324.189208	537.334591	-124.170833	260.621650	315.619350	-105.746946	203.490795	281.130817	-152.706315	488.883499	311.331247	-150.376045	427.370554	269.888049	-80.397702	88.681755	995.804718	-498.420335	169.259658	967.214214	-499.229790	191.502998	995.918217	-490.633972	226.796769	897.847163	-499.455510	326.957267	804.814536	-479.760031	346.994497	800.834836	-351.744865	7.387126	525.863693	-418.163092	-61.438594	507.475154	-375.179562	103.002594	386.572327	-452.505936	232.593284	723.820765	-486.333403	191.191873	652.494402	-466.135585	115.479538	607.712703	-451.473276	216.756030	634.549994	-443.605836	203.386325	371.942181	-389.675293	-216.869616	948.800249	-256.729397	-18.215758	80.993886	-460.492658	-18.044720	80.862806	-61.935475	
2	0.0100	422.910300	1414.468124	-118.872411	409.155849	1414.228790	-427.887626	329.112474	1526.339073	-275.319795	373.101466	1353.849139	-276.363614	563.016377	1181.117187	-60.123515	776.891934	963.946346	-88.648569	533.653010	1151.187792	-497.761404	776.104532	943.822217	-453.129662	-173.522494	1190.159096	-276.393160	50.080137	1212.194495	-468.427305	41.449882	1224.808584	-73.592780	92.214807	1138.559119	-433.081450	81.843670	1160.606581	-102.534373	-144.556956	1273.759621	-222.720385	-135.666011	1262.944331	-315.568885	-7.644901	1074.113195	-44.313285	-31.367838	1079.940165	-479.648634	98.947356	971.865117	-40.805495	176.595573	928.783754	-53.954913	220.399236	854.805272	-72.006947	200.161388	955.765585	-65.100809	297.184636	780.210052	-93.692998	298.986594	760.770547	-217.984015	281.880222	620.882979	-76.563782	299.837557	535.812396	-92.830471	274.687614	452.370639	-93.108977	324.517277	537.766168	-124.171652	260.868062	316.159522	-105.744068	203.768152	281.801199	-152.714423	489.134472	311.598796	-150.384443	427.570035	270.230622	-80.393772	88.577624	995.632562	-498.413297	169.141128	966.994727	-499.231335	191.407804	995.709862	-490.628586	226.625149	897.571345	-499.384734	326.701355	804.395128	-479.664326	346.735053	800.548733	-351.665509	7.180667	525.447513	-418.175538	-61.631150	507.024454	-375.184159	102.834107	386.192455	-452.529191	232.376557	723.441080	-486.276059	190.964098	652.076609	-466.102452	115.271330	607.334893	-451.456337	216.533856	634.205920	-443.593593	203.232196	371.563813	-389.669706	-216.878445	948.793786	-256.727572	-18.222871	80.993498	-460.474737	-18.046609	80.863570	-61.930554	
3	0.0150	422.863745	1414.460933	-118.798455	409.495869	1414.538384	-427.810061	329.053156	1526.351358	-275.332334	373.027787	1353.856750	-276.351347	562.981848	1181.098137	-60.090062	776.899893	963.966198	-88.591003	533.637526	1151.239932	-497.685983	776.115933	943.832770	-453.166918	-173.566153	1190.148822	-276.363695	50.069549	1212.188582	-468.407601	41.390033	1224.836896	-73.559734	92.231211	1138.555914	-433.055365	81.777934	1160.613549	-102.496014	-144.555354	1273.741489	-222.739418	-136.161829	1262.952083	-315.197586	-7.625363	1074.159475	-44.308776	-31.383288	1079.888060	-479.607737	99.140094	972.096525	-40.763064	176.843384	929.069735	-53.892960	220.825029	855.147996	-71.950640	200.339339	956.069010	-65.077604	297.662822	780.668135	-93.653687	299.473769	761.264235	-218.026778	282.275660	621.452254	-76.563859	300.366909	536.335974	-92.754619	275.095476	452.847855	-93.087650	324.020862	538.420157	-124.278454	260.973174	316.770858	-105.715118	203.952789	282.372079	-152.700259	489.390892	311.942924	-150.389926	427.779606	270.719679	-80.407693	88.486453	995.481586	-498.388147	169.040699	966.767228	-499.166775	191.284759	995.504335	-490.564046	226.464225	897.290645	-499.331766	326.435542	804.092069	-479.599246	346.386207	800.449442	-351.644010	6.966391	525.145994	-418.141718	-61.945162	506.516588	-375.031819	102.658763	385.816771	-452.550616	232.156998	723.076263	-486.208293	190.716667	651.674686	-466.033489	115.039385	606.948550	-451.471397	215.808748	632.250961	-441.897942	203.065100	371.197274	-389.658671	-216.880157	948.800132	-256.728011	-18.205608	80.988496	-460.493887	-18.040721	80.854747	-61.925004	
